<!DOCTYPE svg PUBLIC "-//W3C//DTD SVG 20010904//EN" "http://www.w3.org/TR/2001/REC-SVG-20010904/DTD/svg10.dtd">
<svg version="1.0" xmlns="http://www.w3.org/2000/svg" width="50px" height="50px" viewBox="0 0 500 500" preserveAspectRatio="xMidYMid meet">
<g id="layer101" fill="#ffffff" stroke="none">
 <path d="M132 474 c-93 -47 -137 -128 -130 -244 5 -87 42 -151 112 -195 45 -27 57 -30 136 -30 79 0 91 3 136 30 30 19 60 49 79 79 27 45 30 57 30 136 0 79 -3 91 -30 136 -46 74 -109 108 -204 112 -66 3 -83 0 -129 -24z m206 -20 c176 -73 176 -335 0 -408 -50 -21 -134 -20 -183 3 -169 78 -169 324 0 402 49 23 133 24 183 3z"/>
 <path d="M210 325 c0 -48 -2 -55 -20 -55 -16 0 -20 -7 -20 -30 0 -23 4 -30 20 -30 14 0 20 -7 20 -23 0 -41 27 -67 71 -67 35 0 39 3 39 25 0 20 -5 25 -25 25 -18 0 -25 5 -25 20 0 15 7 20 25 20 21 0 25 5 25 30 0 25 -4 30 -25 30 -24 0 -25 3 -25 55 0 54 0 55 -30 55 -30 0 -30 -1 -30 -55z"/>
 </g>

</svg>