<!DOCTYPE svg PUBLIC "-//W3C//DTD SVG 20010904//EN" "http://www.w3.org/TR/2001/REC-SVG-20010904/DTD/svg10.dtd">
<svg version="1.0" xmlns="http://www.w3.org/2000/svg" width="50px" height="50px" viewBox="0 0 500 500" preserveAspectRatio="xMidYMid meet">
<g id="layer101" fill="#ffffff" stroke="none">
 <path d="M132 474 c-93 -47 -137 -128 -130 -244 5 -87 42 -151 112 -195 45 -27 57 -30 136 -30 79 0 91 3 136 30 30 19 60 49 79 79 27 45 30 57 30 136 0 79 -3 91 -30 136 -46 74 -109 108 -204 112 -66 3 -83 0 -129 -24z m206 -20 c176 -73 176 -335 0 -408 -50 -21 -134 -20 -183 3 -169 78 -169 324 0 402 49 23 133 24 183 3z"/>
 <path d="M132 368 c-8 -8 -12 -49 -12 -118 0 -139 1 -140 136 -140 65 0 104 4 112 12 17 17 17 229 0 246 -16 16 -220 16 -236 0z m216 -80 c2 -36 -1 -58 -8 -58 -5 0 -10 11 -10 24 0 23 -49 76 -70 76 -41 0 -101 -64 -85 -90 3 -6 -1 -10 -9 -10 -13 0 -16 12 -16 53 0 30 3 57 7 61 4 4 48 5 98 4 l90 -3 3 -57z m-68 -12 c19 -23 8 -61 -18 -64 -45 -7 -72 46 -34 67 24 14 38 13 52 -3z m70 -106 c0 -13 -7 -20 -20 -20 -13 0 -20 7 -20 20 0 13 7 20 20 20 13 0 20 -7 20 -20z"/>
 </g>

</svg>